<svg xmlns="http://www.w3.org/2000/svg" id="export" class="canvas" preserveAspectRatio="xMidYMid meet" style="" width="99" height="791"><rect id="background" fill="#fff" pointer-events="all" width="99" height="791"/><g id="origin" transform="translate(4.4796875, 4.4796875) scale(1)"><g id="clusters" class="clusters"/><g id="edge-paths" class="edge-paths" style="pointer-events: none;"><defs><marker id="arrowhead" viewBox="0 0 10 10" refX="9" refY="5" markerUnits="strokeWidth" markerWidth="8" markerHeight="6" orient="auto" style="fill: rgb(0, 0, 0);"><path d="M 0 0 L 10 5 L 0 10 L 4 5 z" style="stroke-width: 1;"/></marker><marker id="arrowhead-select" viewBox="0 0 10 10" refX="9" refY="5" markerUnits="strokeWidth" markerWidth="8" markerHeight="6" orient="auto" style="fill: rgba(220, 0, 0, 0.9);"><path d="M 0 0 L 10 5 L 0 10 L 4 5 z" style="stroke-width: 1;"/></marker><marker id="arrowhead-hover" viewBox="0 0 10 10" refX="9" refY="5" markerUnits="strokeWidth" markerWidth="8" markerHeight="6" orient="auto" style="fill: rgba(220, 0, 0, 0.9);"><path d="M 0 0 L 10 5 L 0 10 L 4 5 z" style="stroke-width: 1;"/></marker></defs><path id="edge-dense_16_input&#10;0" class="edge-path" d="M44.796875,23L44.796875,24.666666666666668C44.796875,26.333333333333332,44.796875,29.666666666666668,44.796875,35C44.796875,40.333333333333336,44.796875,47.666666666666664,44.796875,55C44.796875,62.333333333333336,44.796875,69.66666666666667,44.796875,75C44.796875,80.33333333333333,44.796875,83.66666666666667,44.796875,85.33333333333333L44.796875,87" style="stroke: rgb(0, 0, 0); stroke-width: 1px; fill: none; marker-end: url(&quot;#arrowhead&quot;);"/><path id="edge-sequential_4/dense_16/MatMul;sequential_4/dense_16/BiasAdd&#10;9" class="edge-path" d="M44.796875,144L44.796875,147.66666666666666C44.796875,151.33333333333334,44.796875,158.66666666666666,44.796875,166C44.796875,173.33333333333334,44.796875,180.66666666666666,44.796875,184.33333333333334L44.796875,188" style="stroke: rgb(0, 0, 0); stroke-width: 1px; fill: none; marker-end: url(&quot;#arrowhead&quot;);"/><path id="edge-sequential_4/dense_16/Sigmoid&#10;10" class="edge-path" d="M44.796875,211L44.796875,214.66666666666666C44.796875,218.33333333333334,44.796875,225.66666666666666,44.796875,233C44.796875,240.33333333333334,44.796875,247.66666666666666,44.796875,251.33333333333334L44.796875,255" style="stroke: rgb(0, 0, 0); stroke-width: 1px; fill: none; marker-end: url(&quot;#arrowhead&quot;);"/><path id="edge-sequential_4/dense_17/MatMul;sequential_4/dense_17/BiasAdd&#10;11" class="edge-path" d="M44.796875,312L44.796875,315.6666666666667C44.796875,319.3333333333333,44.796875,326.6666666666667,44.796875,334C44.796875,341.3333333333333,44.796875,348.6666666666667,44.796875,352.3333333333333L44.796875,356" style="stroke: rgb(0, 0, 0); stroke-width: 1px; fill: none; marker-end: url(&quot;#arrowhead&quot;);"/><path id="edge-sequential_4/dense_17/Sigmoid&#10;12" class="edge-path" d="M44.796875,379L44.796875,382.6666666666667C44.796875,386.3333333333333,44.796875,393.6666666666667,44.796875,401C44.796875,408.3333333333333,44.796875,415.6666666666667,44.796875,419.3333333333333L44.796875,423" style="stroke: rgb(0, 0, 0); stroke-width: 1px; fill: none; marker-end: url(&quot;#arrowhead&quot;);"/><path id="edge-sequential_4/dense_18/MatMul;sequential_4/dense_18/BiasAdd&#10;13" class="edge-path" d="M44.796875,480L44.796875,483.6666666666667C44.796875,487.3333333333333,44.796875,494.6666666666667,44.796875,502C44.796875,509.3333333333333,44.796875,516.6666666666666,44.796875,520.3333333333334L44.796875,524" style="stroke: rgb(0, 0, 0); stroke-width: 1px; fill: none; marker-end: url(&quot;#arrowhead&quot;);"/><path id="edge-sequential_4/dense_18/Sigmoid&#10;14" class="edge-path" d="M44.796875,547L44.796875,550.6666666666666C44.796875,554.3333333333334,44.796875,561.6666666666666,44.796875,569C44.796875,576.3333333333334,44.796875,583.6666666666666,44.796875,587.3333333333334L44.796875,591" style="stroke: rgb(0, 0, 0); stroke-width: 1px; fill: none; marker-end: url(&quot;#arrowhead&quot;);"/><path id="edge-sequential_4/dense_19/MatMul;sequential_4/dense_19/BiasAdd&#10;15" class="edge-path" d="M44.796875,648L44.796875,651.6666666666666C44.796875,655.3333333333334,44.796875,662.6666666666666,44.796875,670C44.796875,677.3333333333334,44.796875,684.6666666666666,44.796875,688.3333333333334L44.796875,692" style="stroke: rgb(0, 0, 0); stroke-width: 1px; fill: none; marker-end: url(&quot;#arrowhead&quot;);"/><path id="edge-Identity&#10;16" class="edge-path" d="M44.796875,715L44.796875,718.6666666666666C44.796875,722.3333333333334,44.796875,729.6666666666666,44.796875,737C44.796875,744.3333333333334,44.796875,751.6666666666666,44.796875,755.3333333333334L44.796875,759" style="stroke: rgb(0, 0, 0); stroke-width: 1px; fill: none; marker-end: url(&quot;#arrowhead&quot;);"/></g><g id="edge-labels" class="edge-labels"><text class="edge-label" id="edge-label-edge-dense_16_input&#10;0" transform="translate(49.796875,48)" style="opacity: 1; font-family: -apple-system, BlinkMacSystemFont, &quot;Segoe WPC&quot;, &quot;Segoe UI&quot;, Ubuntu, &quot;Droid Sans&quot;, sans-serif, &quot;PingFang SC&quot;; font-size: 10px;"><tspan xml:space="preserve" dy="1em" x="1">?×36</tspan></text><text class="edge-label" id="edge-label-edge-sequential_4/dense_16/MatMul;sequential_4/dense_16/BiasAdd&#10;9" transform="translate(49.796875,159)" style="opacity: 1; font-family: -apple-system, BlinkMacSystemFont, &quot;Segoe WPC&quot;, &quot;Segoe UI&quot;, Ubuntu, &quot;Droid Sans&quot;, sans-serif, &quot;PingFang SC&quot;; font-size: 10px;"><tspan xml:space="preserve" dy="1em" x="1">?×64</tspan></text><text class="edge-label" id="edge-label-edge-sequential_4/dense_16/Sigmoid&#10;10" transform="translate(49.796875,226)" style="opacity: 1; font-family: -apple-system, BlinkMacSystemFont, &quot;Segoe WPC&quot;, &quot;Segoe UI&quot;, Ubuntu, &quot;Droid Sans&quot;, sans-serif, &quot;PingFang SC&quot;; font-size: 10px;"><tspan xml:space="preserve" dy="1em" x="1">?×64</tspan></text><text class="edge-label" id="edge-label-edge-sequential_4/dense_17/MatMul;sequential_4/dense_17/BiasAdd&#10;11" transform="translate(49.796875,327)" style="opacity: 1; font-family: -apple-system, BlinkMacSystemFont, &quot;Segoe WPC&quot;, &quot;Segoe UI&quot;, Ubuntu, &quot;Droid Sans&quot;, sans-serif, &quot;PingFang SC&quot;; font-size: 10px;"><tspan xml:space="preserve" dy="1em" x="1">?×32</tspan></text><text class="edge-label" id="edge-label-edge-sequential_4/dense_17/Sigmoid&#10;12" transform="translate(49.796875,394)" style="opacity: 1; font-family: -apple-system, BlinkMacSystemFont, &quot;Segoe WPC&quot;, &quot;Segoe UI&quot;, Ubuntu, &quot;Droid Sans&quot;, sans-serif, &quot;PingFang SC&quot;; font-size: 10px;"><tspan xml:space="preserve" dy="1em" x="1">?×32</tspan></text><text class="edge-label" id="edge-label-edge-sequential_4/dense_18/MatMul;sequential_4/dense_18/BiasAdd&#10;13" transform="translate(49.796875,495)" style="opacity: 1; font-family: -apple-system, BlinkMacSystemFont, &quot;Segoe WPC&quot;, &quot;Segoe UI&quot;, Ubuntu, &quot;Droid Sans&quot;, sans-serif, &quot;PingFang SC&quot;; font-size: 10px;"><tspan xml:space="preserve" dy="1em" x="1">?×16</tspan></text><text class="edge-label" id="edge-label-edge-sequential_4/dense_18/Sigmoid&#10;14" transform="translate(49.796875,562)" style="opacity: 1; font-family: -apple-system, BlinkMacSystemFont, &quot;Segoe WPC&quot;, &quot;Segoe UI&quot;, Ubuntu, &quot;Droid Sans&quot;, sans-serif, &quot;PingFang SC&quot;; font-size: 10px;"><tspan xml:space="preserve" dy="1em" x="1">?×16</tspan></text><text class="edge-label" id="edge-label-edge-sequential_4/dense_19/MatMul;sequential_4/dense_19/BiasAdd&#10;15" transform="translate(49.796875,663)" style="opacity: 1; font-family: -apple-system, BlinkMacSystemFont, &quot;Segoe WPC&quot;, &quot;Segoe UI&quot;, Ubuntu, &quot;Droid Sans&quot;, sans-serif, &quot;PingFang SC&quot;; font-size: 10px;"><tspan xml:space="preserve" dy="1em" x="1">?×10</tspan></text><text class="edge-label" id="edge-label-edge-Identity&#10;16" transform="translate(49.796875,730)" style="opacity: 1; font-family: -apple-system, BlinkMacSystemFont, &quot;Segoe WPC&quot;, &quot;Segoe UI&quot;, Ubuntu, &quot;Droid Sans&quot;, sans-serif, &quot;PingFang SC&quot;; font-size: 10px;"><tspan xml:space="preserve" dy="1em" x="1">?×10</tspan></text></g><g id="nodes" class="nodes"><g id="input-name-dense_16_input" class="node graph-input" transform="translate(0.07373046875,0)" style=""><g class="node-item graph-item-input" transform="translate(0,0)"><path d="M5,0h79.4462890625a5,5 0 0 1 5,5v13a5,5 0 0 1 -5,5h-79.4462890625a5,5 0 0 1 -5,-5v-13a5,5 0 0 1 5,-5z" style="stroke: rgb(0, 0, 0); fill: rgb(238, 238, 238); stroke-width: 0;"/><text x="6" y="16" style="font-family: -apple-system, BlinkMacSystemFont, &quot;Segoe WPC&quot;, &quot;Segoe UI&quot;, Ubuntu, &quot;Droid Sans&quot;, sans-serif, &quot;PingFang SC&quot;; font-size: 11px; text-rendering: geometricprecision; user-select: none;">dense_16_input</text><title>float32[-1,36]</title></g><path class="node node-border" d="M5,0h79.4462890625a5,5 0 0 1 5,5v13a5,5 0 0 1 -5,5h-79.4462890625a5,5 0 0 1 -5,-5v-13a5,5 0 0 1 5,-5z" style="stroke: rgb(51, 51, 51); fill: none; stroke-width: 1px;"/></g><g id="node-id-0" class="node graph-node" transform="translate(0,87)" style=""><g class="node-item node-item-type node-item-type-layer" transform="translate(0,0)"><path d="M5,0h79.59375a5,5 0 0 1 5,5v18a0,0 0 0 1 0,0h-89.59375a0,0 0 0 1 0,0v-18a5,5 0 0 1 5,-5z" style="stroke: rgb(0, 0, 0); fill: rgb(51, 85, 136); stroke-width: 0;"/><text x="6" y="16" style="font-family: -apple-system, BlinkMacSystemFont, &quot;Segoe WPC&quot;, &quot;Segoe UI&quot;, Ubuntu, &quot;Droid Sans&quot;, sans-serif, &quot;PingFang SC&quot;; font-size: 11px; text-rendering: geometricprecision; user-select: none; fill: rgb(255, 255, 255);">FullyConnected</text><title>0</title></g><g class="node-argument-list" transform="translate(0,23)"><path d="M0,0h89.59375a0,0 0 0 1 0,0v29a5,5 0 0 1 -5,5h-79.59375a5,5 0 0 1 -5,-5v-29a0,0 0 0 1 0,0z" style="stroke: rgb(0, 0, 0); fill: rgb(255, 255, 255); stroke-width: 0;"/><g class="node-argument"><rect rx="3" ry="3" x="3" y="3" width="83.59375" height="14" style="fill: transparent;"/><text xml:space="preserve" x="6" y="14" style="font-family: -apple-system, BlinkMacSystemFont, &quot;Segoe WPC&quot;, &quot;Segoe UI&quot;, Ubuntu, &quot;Droid Sans&quot;, sans-serif, &quot;PingFang SC&quot;; font-size: 9px; font-weight: normal; text-rendering: geometricprecision; user-select: none;"><title>float32[64,36]</title><tspan style="font-weight: bold;">weights</tspan><tspan>〈64×36〉</tspan></text></g><g class="node-argument"><rect rx="3" ry="3" x="3" y="17" width="83.59375" height="14" style="fill: transparent;"/><text xml:space="preserve" x="6" y="28" style="font-family: -apple-system, BlinkMacSystemFont, &quot;Segoe WPC&quot;, &quot;Segoe UI&quot;, Ubuntu, &quot;Droid Sans&quot;, sans-serif, &quot;PingFang SC&quot;; font-size: 9px; font-weight: normal; text-rendering: geometricprecision; user-select: none;"><title>float32[64]</title><tspan style="font-weight: bold;">bias</tspan><tspan>〈64〉</tspan></text></g><line class="node" x1="0" x2="89.59375" y1="0" y2="0" style="stroke: rgb(51, 51, 51); fill: none; stroke-width: 1px;"/></g><path class="node node-border" d="M5,0h79.59375a5,5 0 0 1 5,5v47a5,5 0 0 1 -5,5h-79.59375a5,5 0 0 1 -5,-5v-47a5,5 0 0 1 5,-5z" style="stroke: rgb(51, 51, 51); fill: none; stroke-width: 1px;"/></g><g id="node-id-1" class="node graph-node" transform="translate(19.34375,188)" style=""><g class="node-item node-item-type" transform="translate(0,0)"><path d="M5,0h40.90625a5,5 0 0 1 5,5v13a5,5 0 0 1 -5,5h-40.90625a5,5 0 0 1 -5,-5v-13a5,5 0 0 1 5,-5z" style="stroke: rgb(0, 0, 0); fill: rgb(0, 0, 0); stroke-width: 0;"/><text x="6" y="16" style="font-family: -apple-system, BlinkMacSystemFont, &quot;Segoe WPC&quot;, &quot;Segoe UI&quot;, Ubuntu, &quot;Droid Sans&quot;, sans-serif, &quot;PingFang SC&quot;; font-size: 11px; text-rendering: geometricprecision; user-select: none; fill: rgb(255, 255, 255);">Logistic</text><title>1</title></g><path class="node node-border" d="M5,0h40.90625a5,5 0 0 1 5,5v13a5,5 0 0 1 -5,5h-40.90625a5,5 0 0 1 -5,-5v-13a5,5 0 0 1 5,-5z" style="stroke: rgb(51, 51, 51); fill: none; stroke-width: 1px;"/></g><g id="node-id-2" class="node graph-node" transform="translate(0,255)" style=""><g class="node-item node-item-type node-item-type-layer" transform="translate(0,0)"><path d="M5,0h79.59375a5,5 0 0 1 5,5v18a0,0 0 0 1 0,0h-89.59375a0,0 0 0 1 0,0v-18a5,5 0 0 1 5,-5z" style="stroke: rgb(0, 0, 0); fill: rgb(51, 85, 136); stroke-width: 0;"/><text x="6" y="16" style="font-family: -apple-system, BlinkMacSystemFont, &quot;Segoe WPC&quot;, &quot;Segoe UI&quot;, Ubuntu, &quot;Droid Sans&quot;, sans-serif, &quot;PingFang SC&quot;; font-size: 11px; text-rendering: geometricprecision; user-select: none; fill: rgb(255, 255, 255);">FullyConnected</text><title>2</title></g><g class="node-argument-list" transform="translate(0,23)"><path d="M0,0h89.59375a0,0 0 0 1 0,0v29a5,5 0 0 1 -5,5h-79.59375a5,5 0 0 1 -5,-5v-29a0,0 0 0 1 0,0z" style="stroke: rgb(0, 0, 0); fill: rgb(255, 255, 255); stroke-width: 0;"/><g class="node-argument"><rect rx="3" ry="3" x="3" y="3" width="83.59375" height="14" style="fill: transparent;"/><text xml:space="preserve" x="6" y="14" style="font-family: -apple-system, BlinkMacSystemFont, &quot;Segoe WPC&quot;, &quot;Segoe UI&quot;, Ubuntu, &quot;Droid Sans&quot;, sans-serif, &quot;PingFang SC&quot;; font-size: 9px; font-weight: normal; text-rendering: geometricprecision; user-select: none;"><title>float32[32,64]</title><tspan style="font-weight: bold;">weights</tspan><tspan>〈32×64〉</tspan></text></g><g class="node-argument"><rect rx="3" ry="3" x="3" y="17" width="83.59375" height="14" style="fill: transparent;"/><text xml:space="preserve" x="6" y="28" style="font-family: -apple-system, BlinkMacSystemFont, &quot;Segoe WPC&quot;, &quot;Segoe UI&quot;, Ubuntu, &quot;Droid Sans&quot;, sans-serif, &quot;PingFang SC&quot;; font-size: 9px; font-weight: normal; text-rendering: geometricprecision; user-select: none;"><title>float32[32]</title><tspan style="font-weight: bold;">bias</tspan><tspan>〈32〉</tspan></text></g><line class="node" x1="0" x2="89.59375" y1="0" y2="0" style="stroke: rgb(51, 51, 51); fill: none; stroke-width: 1px;"/></g><path class="node node-border" d="M5,0h79.59375a5,5 0 0 1 5,5v47a5,5 0 0 1 -5,5h-79.59375a5,5 0 0 1 -5,-5v-47a5,5 0 0 1 5,-5z" style="stroke: rgb(51, 51, 51); fill: none; stroke-width: 1px;"/></g><g id="node-id-3" class="node graph-node" transform="translate(19.34375,356)" style=""><g class="node-item node-item-type" transform="translate(0,0)"><path d="M5,0h40.90625a5,5 0 0 1 5,5v13a5,5 0 0 1 -5,5h-40.90625a5,5 0 0 1 -5,-5v-13a5,5 0 0 1 5,-5z" style="stroke: rgb(0, 0, 0); fill: rgb(0, 0, 0); stroke-width: 0;"/><text x="6" y="16" style="font-family: -apple-system, BlinkMacSystemFont, &quot;Segoe WPC&quot;, &quot;Segoe UI&quot;, Ubuntu, &quot;Droid Sans&quot;, sans-serif, &quot;PingFang SC&quot;; font-size: 11px; text-rendering: geometricprecision; user-select: none; fill: rgb(255, 255, 255);">Logistic</text><title>3</title></g><path class="node node-border" d="M5,0h40.90625a5,5 0 0 1 5,5v13a5,5 0 0 1 -5,5h-40.90625a5,5 0 0 1 -5,-5v-13a5,5 0 0 1 5,-5z" style="stroke: rgb(51, 51, 51); fill: none; stroke-width: 1px;"/></g><g id="node-id-4" class="node graph-node" transform="translate(0,423)" style=""><g class="node-item node-item-type node-item-type-layer" transform="translate(0,0)"><path d="M5,0h79.59375a5,5 0 0 1 5,5v18a0,0 0 0 1 0,0h-89.59375a0,0 0 0 1 0,0v-18a5,5 0 0 1 5,-5z" style="stroke: rgb(0, 0, 0); fill: rgb(51, 85, 136); stroke-width: 0;"/><text x="6" y="16" style="font-family: -apple-system, BlinkMacSystemFont, &quot;Segoe WPC&quot;, &quot;Segoe UI&quot;, Ubuntu, &quot;Droid Sans&quot;, sans-serif, &quot;PingFang SC&quot;; font-size: 11px; text-rendering: geometricprecision; user-select: none; fill: rgb(255, 255, 255);">FullyConnected</text><title>4</title></g><g class="node-argument-list" transform="translate(0,23)"><path d="M0,0h89.59375a0,0 0 0 1 0,0v29a5,5 0 0 1 -5,5h-79.59375a5,5 0 0 1 -5,-5v-29a0,0 0 0 1 0,0z" style="stroke: rgb(0, 0, 0); fill: rgb(255, 255, 255); stroke-width: 0;"/><g class="node-argument"><rect rx="3" ry="3" x="3" y="3" width="83.59375" height="14" style="fill: transparent;"/><text xml:space="preserve" x="6" y="14" style="font-family: -apple-system, BlinkMacSystemFont, &quot;Segoe WPC&quot;, &quot;Segoe UI&quot;, Ubuntu, &quot;Droid Sans&quot;, sans-serif, &quot;PingFang SC&quot;; font-size: 9px; font-weight: normal; text-rendering: geometricprecision; user-select: none;"><title>float32[16,32]</title><tspan style="font-weight: bold;">weights</tspan><tspan>〈16×32〉</tspan></text></g><g class="node-argument"><rect rx="3" ry="3" x="3" y="17" width="83.59375" height="14" style="fill: transparent;"/><text xml:space="preserve" x="6" y="28" style="font-family: -apple-system, BlinkMacSystemFont, &quot;Segoe WPC&quot;, &quot;Segoe UI&quot;, Ubuntu, &quot;Droid Sans&quot;, sans-serif, &quot;PingFang SC&quot;; font-size: 9px; font-weight: normal; text-rendering: geometricprecision; user-select: none;"><title>float32[16]</title><tspan style="font-weight: bold;">bias</tspan><tspan>〈16〉</tspan></text></g><line class="node" x1="0" x2="89.59375" y1="0" y2="0" style="stroke: rgb(51, 51, 51); fill: none; stroke-width: 1px;"/></g><path class="node node-border" d="M5,0h79.59375a5,5 0 0 1 5,5v47a5,5 0 0 1 -5,5h-79.59375a5,5 0 0 1 -5,-5v-47a5,5 0 0 1 5,-5z" style="stroke: rgb(51, 51, 51); fill: none; stroke-width: 1px;"/></g><g id="node-id-5" class="node graph-node" transform="translate(19.34375,524)" style=""><g class="node-item node-item-type" transform="translate(0,0)"><path d="M5,0h40.90625a5,5 0 0 1 5,5v13a5,5 0 0 1 -5,5h-40.90625a5,5 0 0 1 -5,-5v-13a5,5 0 0 1 5,-5z" style="stroke: rgb(0, 0, 0); fill: rgb(0, 0, 0); stroke-width: 0;"/><text x="6" y="16" style="font-family: -apple-system, BlinkMacSystemFont, &quot;Segoe WPC&quot;, &quot;Segoe UI&quot;, Ubuntu, &quot;Droid Sans&quot;, sans-serif, &quot;PingFang SC&quot;; font-size: 11px; text-rendering: geometricprecision; user-select: none; fill: rgb(255, 255, 255);">Logistic</text><title>5</title></g><path class="node node-border" d="M5,0h40.90625a5,5 0 0 1 5,5v13a5,5 0 0 1 -5,5h-40.90625a5,5 0 0 1 -5,-5v-13a5,5 0 0 1 5,-5z" style="stroke: rgb(51, 51, 51); fill: none; stroke-width: 1px;"/></g><g id="node-id-6" class="node graph-node" transform="translate(0,591)" style=""><g class="node-item node-item-type node-item-type-layer" transform="translate(0,0)"><path d="M5,0h79.59375a5,5 0 0 1 5,5v18a0,0 0 0 1 0,0h-89.59375a0,0 0 0 1 0,0v-18a5,5 0 0 1 5,-5z" style="stroke: rgb(0, 0, 0); fill: rgb(51, 85, 136); stroke-width: 0;"/><text x="6" y="16" style="font-family: -apple-system, BlinkMacSystemFont, &quot;Segoe WPC&quot;, &quot;Segoe UI&quot;, Ubuntu, &quot;Droid Sans&quot;, sans-serif, &quot;PingFang SC&quot;; font-size: 11px; text-rendering: geometricprecision; user-select: none; fill: rgb(255, 255, 255);">FullyConnected</text><title>6</title></g><g class="node-argument-list" transform="translate(0,23)"><path d="M0,0h89.59375a0,0 0 0 1 0,0v29a5,5 0 0 1 -5,5h-79.59375a5,5 0 0 1 -5,-5v-29a0,0 0 0 1 0,0z" style="stroke: rgb(0, 0, 0); fill: rgb(255, 255, 255); stroke-width: 0;"/><g class="node-argument"><rect rx="3" ry="3" x="3" y="3" width="83.59375" height="14" style="fill: transparent;"/><text xml:space="preserve" x="6" y="14" style="font-family: -apple-system, BlinkMacSystemFont, &quot;Segoe WPC&quot;, &quot;Segoe UI&quot;, Ubuntu, &quot;Droid Sans&quot;, sans-serif, &quot;PingFang SC&quot;; font-size: 9px; font-weight: normal; text-rendering: geometricprecision; user-select: none;"><title>float32[10,16]</title><tspan style="font-weight: bold;">weights</tspan><tspan>〈10×16〉</tspan></text></g><g class="node-argument"><rect rx="3" ry="3" x="3" y="17" width="83.59375" height="14" style="fill: transparent;"/><text xml:space="preserve" x="6" y="28" style="font-family: -apple-system, BlinkMacSystemFont, &quot;Segoe WPC&quot;, &quot;Segoe UI&quot;, Ubuntu, &quot;Droid Sans&quot;, sans-serif, &quot;PingFang SC&quot;; font-size: 9px; font-weight: normal; text-rendering: geometricprecision; user-select: none;"><title>float32[10]</title><tspan style="font-weight: bold;">bias</tspan><tspan>〈10〉</tspan></text></g><line class="node" x1="0" x2="89.59375" y1="0" y2="0" style="stroke: rgb(51, 51, 51); fill: none; stroke-width: 1px;"/></g><path class="node node-border" d="M5,0h79.59375a5,5 0 0 1 5,5v47a5,5 0 0 1 -5,5h-79.59375a5,5 0 0 1 -5,-5v-47a5,5 0 0 1 5,-5z" style="stroke: rgb(51, 51, 51); fill: none; stroke-width: 1px;"/></g><g id="node-id-7" class="node graph-node" transform="translate(17.531494140625,692)" style=""><g class="node-item node-item-type node-item-type-activation" transform="translate(0,0)"><path d="M5,0h44.53076171875a5,5 0 0 1 5,5v13a5,5 0 0 1 -5,5h-44.53076171875a5,5 0 0 1 -5,-5v-13a5,5 0 0 1 5,-5z" style="stroke: rgb(0, 0, 0); fill: rgb(112, 41, 33); stroke-width: 0;"/><text x="6" y="16" style="font-family: -apple-system, BlinkMacSystemFont, &quot;Segoe WPC&quot;, &quot;Segoe UI&quot;, Ubuntu, &quot;Droid Sans&quot;, sans-serif, &quot;PingFang SC&quot;; font-size: 11px; text-rendering: geometricprecision; user-select: none; fill: rgb(255, 255, 255);">Softmax</text><title>7</title></g><path class="node node-border" d="M5,0h44.53076171875a5,5 0 0 1 5,5v13a5,5 0 0 1 -5,5h-44.53076171875a5,5 0 0 1 -5,-5v-13a5,5 0 0 1 5,-5z" style="stroke: rgb(51, 51, 51); fill: none; stroke-width: 1px;"/></g><g class="node" transform="translate(19.046142578125,759)" style=""><g class="node-item graph-item-output" transform="translate(0,0)"><path d="M5,0h41.50146484375a5,5 0 0 1 5,5v13a5,5 0 0 1 -5,5h-41.50146484375a5,5 0 0 1 -5,-5v-13a5,5 0 0 1 5,-5z" style="stroke: rgb(0, 0, 0); fill: rgb(238, 238, 238); stroke-width: 0;"/><text x="6" y="16" style="font-family: -apple-system, BlinkMacSystemFont, &quot;Segoe WPC&quot;, &quot;Segoe UI&quot;, Ubuntu, &quot;Droid Sans&quot;, sans-serif, &quot;PingFang SC&quot;; font-size: 11px; text-rendering: geometricprecision; user-select: none;">Identity</text><title>float32[-1,10]</title></g><path class="node node-border" d="M5,0h41.50146484375a5,5 0 0 1 5,5v13a5,5 0 0 1 -5,5h-41.50146484375a5,5 0 0 1 -5,-5v-13a5,5 0 0 1 5,-5z" style="stroke: rgb(51, 51, 51); fill: none; stroke-width: 1px;"/></g></g></g></svg>